<mxfile host="app.diagrams.net" modified="2024-06-03T11:17:45.645Z" agent="Mozilla/5.0 (Windows NT 10.0; Win64; x64) AppleWebKit/537.36 (KHTML, like Gecko) Chrome/121.0.0.0 Safari/537.36" etag="AGnUUbI7FnpTgQGVc5D3" version="24.4.13" type="device">
  <diagram name="Página-1" id="ZGDH67ieMrnIP1PrNM3p">
    <mxGraphModel dx="2261" dy="782" grid="1" gridSize="10" guides="1" tooltips="1" connect="1" arrows="1" fold="1" page="1" pageScale="1" pageWidth="827" pageHeight="1169" math="0" shadow="0">
      <root>
        <mxCell id="0" />
        <mxCell id="1" parent="0" />
        <mxCell id="SdWlu_4mKzTGnvyb0GIw-1" value="" style="group" vertex="1" connectable="0" parent="1">
          <mxGeometry x="-690" y="90" width="310" height="560" as="geometry" />
        </mxCell>
        <mxCell id="SdWlu_4mKzTGnvyb0GIw-2" value="" style="rounded=1;whiteSpace=wrap;html=1;fillColor=#f5f5f5;gradientColor=#b3b3b3;strokeColor=#666666;" vertex="1" parent="SdWlu_4mKzTGnvyb0GIw-1">
          <mxGeometry width="310" height="560" as="geometry" />
        </mxCell>
        <mxCell id="SdWlu_4mKzTGnvyb0GIw-12" value="" style="group" vertex="1" connectable="0" parent="SdWlu_4mKzTGnvyb0GIw-1">
          <mxGeometry x="34.0025" y="40" width="232.5" height="439.3026315789473" as="geometry" />
        </mxCell>
        <mxCell id="SdWlu_4mKzTGnvyb0GIw-4" value="Quantidade :" style="text;html=1;align=center;verticalAlign=middle;resizable=0;points=[];autosize=1;strokeColor=none;fillColor=none;" vertex="1" parent="SdWlu_4mKzTGnvyb0GIw-12">
          <mxGeometry y="85" width="90" height="30" as="geometry" />
        </mxCell>
        <mxCell id="SdWlu_4mKzTGnvyb0GIw-5" value="Tecido :" style="text;html=1;align=center;verticalAlign=middle;resizable=0;points=[];autosize=1;strokeColor=none;fillColor=none;" vertex="1" parent="SdWlu_4mKzTGnvyb0GIw-12">
          <mxGeometry y="135" width="60" height="30" as="geometry" />
        </mxCell>
        <mxCell id="SdWlu_4mKzTGnvyb0GIw-6" value="Localização :" style="text;html=1;align=center;verticalAlign=middle;resizable=0;points=[];autosize=1;strokeColor=none;fillColor=none;" vertex="1" parent="SdWlu_4mKzTGnvyb0GIw-12">
          <mxGeometry y="180" width="90" height="30" as="geometry" />
        </mxCell>
        <mxCell id="SdWlu_4mKzTGnvyb0GIw-7" value="" style="rounded=1;whiteSpace=wrap;html=1;" vertex="1" parent="SdWlu_4mKzTGnvyb0GIw-12">
          <mxGeometry x="94.453125" y="90" width="138.046875" height="20" as="geometry" />
        </mxCell>
        <mxCell id="SdWlu_4mKzTGnvyb0GIw-8" value="" style="rounded=1;whiteSpace=wrap;html=1;" vertex="1" parent="SdWlu_4mKzTGnvyb0GIw-12">
          <mxGeometry x="94.453125" y="140" width="138.046875" height="20" as="geometry" />
        </mxCell>
        <mxCell id="SdWlu_4mKzTGnvyb0GIw-9" value="" style="rounded=1;whiteSpace=wrap;html=1;" vertex="1" parent="SdWlu_4mKzTGnvyb0GIw-12">
          <mxGeometry x="94.453125" y="185" width="138.046875" height="20" as="geometry" />
        </mxCell>
        <mxCell id="SdWlu_4mKzTGnvyb0GIw-10" value="Voltar" style="rounded=1;whiteSpace=wrap;html=1;fillColor=#B0B0B0;container=0;" vertex="1" parent="SdWlu_4mKzTGnvyb0GIw-12">
          <mxGeometry x="62.113970588235304" y="400.0043859649122" width="127.64705882352939" height="39.29824561403508" as="geometry" />
        </mxCell>
        <mxCell id="SdWlu_4mKzTGnvyb0GIw-11" value="Comprar Agora" style="rounded=1;whiteSpace=wrap;html=1;fillColor=#B0B0B0;container=0;" vertex="1" parent="SdWlu_4mKzTGnvyb0GIw-12">
          <mxGeometry x="62.113970588235304" y="330.0043859649122" width="127.64705882352939" height="39.29824561403508" as="geometry" />
        </mxCell>
        <mxCell id="SdWlu_4mKzTGnvyb0GIw-3" value="&lt;font style=&quot;font-size: 18px;&quot;&gt;Compra de Tecido&lt;/font&gt;" style="text;html=1;align=center;verticalAlign=middle;resizable=0;points=[];autosize=1;strokeColor=none;fillColor=none;" vertex="1" parent="SdWlu_4mKzTGnvyb0GIw-1">
          <mxGeometry x="69.99625000000006" y="40" width="170" height="40" as="geometry" />
        </mxCell>
        <mxCell id="SdWlu_4mKzTGnvyb0GIw-13" value="" style="rounded=1;whiteSpace=wrap;html=1;fillColor=#f5f5f5;gradientColor=#b3b3b3;strokeColor=#666666;" vertex="1" parent="1">
          <mxGeometry x="-280" y="215" width="560" height="310" as="geometry" />
        </mxCell>
        <mxCell id="SdWlu_4mKzTGnvyb0GIw-14" value="&lt;font style=&quot;font-size: 18px;&quot;&gt;Compra de Tecido&lt;/font&gt;" style="text;html=1;align=center;verticalAlign=middle;resizable=0;points=[];autosize=1;strokeColor=none;fillColor=none;" vertex="1" parent="1">
          <mxGeometry x="-85.00374999999997" y="250" width="170" height="40" as="geometry" />
        </mxCell>
        <mxCell id="SdWlu_4mKzTGnvyb0GIw-15" value="&lt;span style=&quot;color: rgb(0, 0, 0); font-family: Helvetica; font-size: 12px; font-style: normal; font-variant-ligatures: normal; font-variant-caps: normal; font-weight: 400; letter-spacing: normal; orphans: 2; text-align: center; text-indent: 0px; text-transform: none; widows: 2; word-spacing: 0px; -webkit-text-stroke-width: 0px; white-space: nowrap; background-color: rgb(251, 251, 251); text-decoration-thickness: initial; text-decoration-style: initial; text-decoration-color: initial; display: inline !important; float: none;&quot;&gt;Quantidade :&lt;/span&gt;" style="text;whiteSpace=wrap;html=1;" vertex="1" parent="1">
          <mxGeometry x="-240" y="320" width="100" height="40" as="geometry" />
        </mxCell>
        <mxCell id="SdWlu_4mKzTGnvyb0GIw-28" value="" style="rounded=1;whiteSpace=wrap;html=1;" vertex="1" parent="1">
          <mxGeometry x="-150.00437499999992" y="326" width="138.046875" height="20" as="geometry" />
        </mxCell>
        <mxCell id="SdWlu_4mKzTGnvyb0GIw-29" value="Tecido :" style="text;html=1;align=center;verticalAlign=middle;resizable=0;points=[];autosize=1;strokeColor=none;fillColor=none;" vertex="1" parent="1">
          <mxGeometry x="-239.99749999999995" y="360" width="60" height="30" as="geometry" />
        </mxCell>
        <mxCell id="SdWlu_4mKzTGnvyb0GIw-30" value="" style="rounded=1;whiteSpace=wrap;html=1;" vertex="1" parent="1">
          <mxGeometry x="-150.00437499999992" y="365" width="138.046875" height="20" as="geometry" />
        </mxCell>
        <mxCell id="SdWlu_4mKzTGnvyb0GIw-31" value="" style="rounded=1;whiteSpace=wrap;html=1;" vertex="1" parent="1">
          <mxGeometry x="100.00562500000007" y="326" width="138.046875" height="20" as="geometry" />
        </mxCell>
        <mxCell id="SdWlu_4mKzTGnvyb0GIw-32" value="Localização :" style="text;html=1;align=center;verticalAlign=middle;resizable=0;points=[];autosize=1;strokeColor=none;fillColor=none;" vertex="1" parent="1">
          <mxGeometry x="10.002500000000055" y="321" width="90" height="30" as="geometry" />
        </mxCell>
        <mxCell id="SdWlu_4mKzTGnvyb0GIw-33" value="Comprar Agora" style="rounded=1;whiteSpace=wrap;html=1;fillColor=#B0B0B0;container=0;" vertex="1" parent="1">
          <mxGeometry x="-170.0035294117646" y="440.0043859649122" width="127.64705882352939" height="39.29824561403508" as="geometry" />
        </mxCell>
        <mxCell id="SdWlu_4mKzTGnvyb0GIw-34" value="Voltar" style="rounded=1;whiteSpace=wrap;html=1;fillColor=#B0B0B0;container=0;" vertex="1" parent="1">
          <mxGeometry x="29.99647058823541" y="440.0043859649122" width="127.64705882352939" height="39.29824561403508" as="geometry" />
        </mxCell>
        <mxCell id="SdWlu_4mKzTGnvyb0GIw-37" value="" style="edgeStyle=orthogonalEdgeStyle;rounded=0;orthogonalLoop=1;jettySize=auto;html=1;" edge="1" parent="1" source="SdWlu_4mKzTGnvyb0GIw-35" target="SdWlu_4mKzTGnvyb0GIw-36">
          <mxGeometry relative="1" as="geometry" />
        </mxCell>
        <mxCell id="SdWlu_4mKzTGnvyb0GIw-35" value="Início" style="ellipse;whiteSpace=wrap;html=1;" vertex="1" parent="1">
          <mxGeometry x="610" y="100" width="120" height="80" as="geometry" />
        </mxCell>
        <mxCell id="SdWlu_4mKzTGnvyb0GIw-40" value="" style="edgeStyle=orthogonalEdgeStyle;rounded=0;orthogonalLoop=1;jettySize=auto;html=1;" edge="1" parent="1" source="SdWlu_4mKzTGnvyb0GIw-36" target="SdWlu_4mKzTGnvyb0GIw-38">
          <mxGeometry relative="1" as="geometry" />
        </mxCell>
        <mxCell id="SdWlu_4mKzTGnvyb0GIw-36" value="Compra de Tecido" style="rounded=0;whiteSpace=wrap;html=1;" vertex="1" parent="1">
          <mxGeometry x="610" y="220" width="120" height="60" as="geometry" />
        </mxCell>
        <mxCell id="SdWlu_4mKzTGnvyb0GIw-42" value="" style="edgeStyle=orthogonalEdgeStyle;rounded=0;orthogonalLoop=1;jettySize=auto;html=1;" edge="1" parent="1" source="SdWlu_4mKzTGnvyb0GIw-38" target="SdWlu_4mKzTGnvyb0GIw-39">
          <mxGeometry relative="1" as="geometry" />
        </mxCell>
        <mxCell id="SdWlu_4mKzTGnvyb0GIw-38" value="Quantidade?" style="rounded=0;whiteSpace=wrap;html=1;" vertex="1" parent="1">
          <mxGeometry x="790" y="220" width="120" height="60" as="geometry" />
        </mxCell>
        <mxCell id="SdWlu_4mKzTGnvyb0GIw-43" value="" style="edgeStyle=orthogonalEdgeStyle;rounded=0;orthogonalLoop=1;jettySize=auto;html=1;" edge="1" parent="1" source="SdWlu_4mKzTGnvyb0GIw-39" target="SdWlu_4mKzTGnvyb0GIw-41">
          <mxGeometry relative="1" as="geometry" />
        </mxCell>
        <mxCell id="SdWlu_4mKzTGnvyb0GIw-39" value="Tecido?" style="rounded=0;whiteSpace=wrap;html=1;" vertex="1" parent="1">
          <mxGeometry x="790" y="330" width="120" height="60" as="geometry" />
        </mxCell>
        <mxCell id="SdWlu_4mKzTGnvyb0GIw-45" value="" style="edgeStyle=orthogonalEdgeStyle;rounded=0;orthogonalLoop=1;jettySize=auto;html=1;" edge="1" parent="1" source="SdWlu_4mKzTGnvyb0GIw-41" target="SdWlu_4mKzTGnvyb0GIw-44">
          <mxGeometry relative="1" as="geometry" />
        </mxCell>
        <mxCell id="SdWlu_4mKzTGnvyb0GIw-41" value="Localização?" style="rounded=0;whiteSpace=wrap;html=1;" vertex="1" parent="1">
          <mxGeometry x="790" y="440" width="120" height="60" as="geometry" />
        </mxCell>
        <mxCell id="SdWlu_4mKzTGnvyb0GIw-47" value="" style="edgeStyle=orthogonalEdgeStyle;rounded=0;orthogonalLoop=1;jettySize=auto;html=1;" edge="1" parent="1" source="SdWlu_4mKzTGnvyb0GIw-44" target="SdWlu_4mKzTGnvyb0GIw-46">
          <mxGeometry relative="1" as="geometry" />
        </mxCell>
        <mxCell id="SdWlu_4mKzTGnvyb0GIw-49" value="SIM" style="edgeLabel;html=1;align=center;verticalAlign=middle;resizable=0;points=[];" vertex="1" connectable="0" parent="SdWlu_4mKzTGnvyb0GIw-47">
          <mxGeometry x="-0.12" relative="1" as="geometry">
            <mxPoint as="offset" />
          </mxGeometry>
        </mxCell>
        <mxCell id="SdWlu_4mKzTGnvyb0GIw-44" value="O pedido está&lt;div&gt;Correto?&lt;/div&gt;" style="rhombus;whiteSpace=wrap;html=1;" vertex="1" parent="1">
          <mxGeometry x="797.5" y="540" width="105" height="100" as="geometry" />
        </mxCell>
        <mxCell id="SdWlu_4mKzTGnvyb0GIw-53" value="" style="edgeStyle=orthogonalEdgeStyle;rounded=0;orthogonalLoop=1;jettySize=auto;html=1;" edge="1" parent="1" source="SdWlu_4mKzTGnvyb0GIw-46" target="SdWlu_4mKzTGnvyb0GIw-52">
          <mxGeometry relative="1" as="geometry" />
        </mxCell>
        <mxCell id="SdWlu_4mKzTGnvyb0GIw-46" value="Comprar Agora" style="rounded=0;whiteSpace=wrap;html=1;" vertex="1" parent="1">
          <mxGeometry x="790" y="690" width="120" height="60" as="geometry" />
        </mxCell>
        <mxCell id="SdWlu_4mKzTGnvyb0GIw-50" value="" style="endArrow=classic;html=1;rounded=0;exitX=0;exitY=0.5;exitDx=0;exitDy=0;entryX=0.5;entryY=1;entryDx=0;entryDy=0;" edge="1" parent="1" source="SdWlu_4mKzTGnvyb0GIw-44" target="SdWlu_4mKzTGnvyb0GIw-36">
          <mxGeometry width="50" height="50" relative="1" as="geometry">
            <mxPoint x="420" y="510" as="sourcePoint" />
            <mxPoint x="470" y="460" as="targetPoint" />
            <Array as="points">
              <mxPoint x="670" y="590" />
            </Array>
          </mxGeometry>
        </mxCell>
        <mxCell id="SdWlu_4mKzTGnvyb0GIw-51" value="NÂO" style="edgeLabel;html=1;align=center;verticalAlign=middle;resizable=0;points=[];" vertex="1" connectable="0" parent="SdWlu_4mKzTGnvyb0GIw-50">
          <mxGeometry x="-0.7051" y="2" relative="1" as="geometry">
            <mxPoint x="1" as="offset" />
          </mxGeometry>
        </mxCell>
        <mxCell id="SdWlu_4mKzTGnvyb0GIw-52" value="Voltar" style="ellipse;whiteSpace=wrap;html=1;" vertex="1" parent="1">
          <mxGeometry x="790" y="790" width="120" height="80" as="geometry" />
        </mxCell>
      </root>
    </mxGraphModel>
  </diagram>
</mxfile>
